<svg width="32" height="32" viewBox="0 0 32 32" fill="none" xmlns="http://www.w3.org/2000/svg">
<path fill-rule="evenodd" clip-rule="evenodd" d="M16.0255 4L14.1505 9.27002L16.0255 11.6889L17.975 9.21849L16.0255 4ZM10.6754 10.4008L9.58765 6.59638L12.8997 8.58588L12.4502 10.4008H10.6754ZM9.30153 10.7072C6.8625 13.168 5.04511 16.1748 4 19.4781C5.9208 17.7463 7.90172 16.2864 10.2032 16.2005C10.8158 17.9238 12.1641 18.7281 13.6384 19.378L13.1374 16.9591L12.041 15.7997L14.1908 15.6967C14.1908 15.6967 15.1412 22.3493 15.1412 22.7043C15.1412 23.0592 13.4094 25.126 13.4094 25.126L13.458 27.8483L16.0573 27.0411L18.459 28.0001L18.5076 25.4781L16.8588 22.8073L17.9437 15.648L20.0448 15.774L18.8998 16.7558L18.5506 19.4037C20.2824 18.4419 21.4618 17.2482 21.8998 16.1518C24.3445 16.5955 26.2824 17.835 28 19.4781C27.2615 16.5411 25.8931 13.6098 22.584 10.7158C23.3254 12.8799 21.1183 12.4247 18.2901 11.42L15.8998 13.9877L13.8015 11.4114C11.5258 12.3188 9.36164 13.0688 9.30153 10.7072ZM22.5066 6.58241L19.186 8.51179L19.5009 10.4011H21.3502L22.5066 6.58241Z" fill="#00CBE0"/>
</svg>
