<svg width="365" height="365" viewBox="0 0 365 365" fill="none" xmlns="http://www.w3.org/2000/svg">
<mask id="path-1-inside-1" fill="white">
<path fill-rule="evenodd" clip-rule="evenodd" d="M357.515 34.1421C361.185 31.1363 362.815 25.9206 362.815 19.723C362.815 9.89969 354.851 1.93635 345.028 1.93635C338.65 1.93635 333.056 5.29338 329.917 10.3369H257.354L249.512 18.1787L234.541 18.5351H87.6855C50.9717 24.9512 24.2739 48.7617 16.3965 89.4678V229.551V247.373L7.73486 256.854L7.8418 329.355V330.854C3.25106 334.071 0.249512 339.4 0.249512 345.431C0.249512 355.255 8.21285 363.218 18.0361 363.218C24.2977 363.218 30.2423 359.982 33.7299 355.092L107.29 355.376L116.558 346.465L128.641 346.251L276.958 345.752C319.731 338.267 343.043 310.036 348.461 273.465L349.495 127.144L349.673 115.488L357.515 107.29V34.1421Z"/>
</mask>
<path fill-rule="evenodd" clip-rule="evenodd" d="M357.515 34.1421C361.185 31.1363 362.815 25.9206 362.815 19.723C362.815 9.89969 354.851 1.93635 345.028 1.93635C338.65 1.93635 333.056 5.29338 329.917 10.3369H257.354L249.512 18.1787L234.541 18.5351H87.6855C50.9717 24.9512 24.2739 48.7617 16.3965 89.4678V229.551V247.373L7.73486 256.854L7.8418 329.355V330.854C3.25106 334.071 0.249512 339.4 0.249512 345.431C0.249512 355.255 8.21285 363.218 18.0361 363.218C24.2977 363.218 30.2423 359.982 33.7299 355.092L107.29 355.376L116.558 346.465L128.641 346.251L276.958 345.752C319.731 338.267 343.043 310.036 348.461 273.465L349.495 127.144L349.673 115.488L357.515 107.29V34.1421Z" fill="#0F0F2E"/>
<path d="M357.515 34.1421L354.98 31.0475L353.515 32.2478V34.1421H357.515ZM329.917 10.3369V14.3369H332.139L333.313 12.4506L329.917 10.3369ZM257.354 10.3369V6.33689H255.697L254.525 7.50847L257.354 10.3369ZM249.512 18.1787L249.607 22.1776L251.208 22.1394L252.34 21.0071L249.512 18.1787ZM234.541 18.5351V22.5351H234.589L234.636 22.534L234.541 18.5351ZM87.6855 18.5351V14.5351H87.3387L86.997 14.5949L87.6855 18.5351ZM16.3965 89.4678L12.4693 88.7078L12.3965 89.0843V89.4678H16.3965ZM16.3965 247.373L19.3497 250.071L20.3965 248.925V247.373H16.3965ZM7.73486 256.854L4.78164 254.157L3.73257 255.305L3.73487 256.86L7.73486 256.854ZM7.8418 329.355H11.8418L11.8418 329.35L7.8418 329.355ZM7.8418 330.854L10.137 334.13L11.8418 332.936V330.854H7.8418ZM33.7299 355.092L33.7453 351.092L31.6752 351.084L30.4732 352.769L33.7299 355.092ZM107.29 355.376L107.275 359.376L108.895 359.382L110.062 358.259L107.29 355.376ZM116.558 346.465L116.487 342.465L114.917 342.493L113.785 343.581L116.558 346.465ZM128.641 346.251L128.628 342.251L128.599 342.251L128.57 342.252L128.641 346.251ZM276.958 345.752L276.971 349.752L277.312 349.751L277.648 349.692L276.958 345.752ZM348.461 273.465L352.418 274.051L352.459 273.774L352.461 273.493L348.461 273.465ZM349.495 127.144L345.495 127.083L345.495 127.099L345.495 127.116L349.495 127.144ZM349.673 115.488L346.782 112.723L345.697 113.858L345.673 115.427L349.673 115.488ZM357.515 107.29L360.405 110.055L361.515 108.895V107.29H357.515ZM360.049 37.2367C365.065 33.1286 366.815 26.4469 366.815 19.723H358.815C358.815 25.3944 357.304 29.144 354.98 31.0475L360.049 37.2367ZM366.815 19.723C366.815 7.69055 357.06 -2.06365 345.028 -2.06365V5.93635C352.642 5.93635 358.815 12.1088 358.815 19.723H366.815ZM345.028 -2.06365C337.211 -2.06365 330.36 2.0558 326.521 8.22314L333.313 12.4506C335.752 8.53096 340.089 5.93635 345.028 5.93635V-2.06365ZM329.917 6.33689H257.354V14.3369H329.917V6.33689ZM254.525 7.50847L246.683 15.3503L252.34 21.0071L260.182 13.1653L254.525 7.50847ZM249.417 14.1798L234.446 14.5363L234.636 22.534L249.607 22.1776L249.417 14.1798ZM234.541 14.5351H87.6855V22.5351H234.541V14.5351ZM86.997 14.5949C67.9652 17.9208 51.3478 25.7932 38.4469 38.2671C25.5392 50.7475 16.5448 67.6483 12.4693 88.7078L20.3236 90.2277C24.1256 70.5811 32.4189 55.2236 44.0078 44.0183C55.6036 32.8063 70.6921 25.5655 88.3741 22.4754L86.997 14.5949ZM12.3965 89.4678V229.551H20.3965V89.4678H12.3965ZM12.3965 229.551V247.373H20.3965V229.551H12.3965ZM13.4433 244.675L4.78164 254.157L10.6881 259.552L19.3497 250.071L13.4433 244.675ZM3.73487 256.86L3.8418 329.361L11.8418 329.35L11.7349 256.849L3.73487 256.86ZM3.8418 329.355V330.854H11.8418V329.355H3.8418ZM5.54655 327.578C-0.0668479 331.511 -3.75049 338.041 -3.75049 345.431H4.24951C4.24951 340.76 6.56897 336.63 10.137 334.13L5.54655 327.578ZM-3.75049 345.431C-3.75049 357.464 6.00371 367.218 18.0361 367.218V359.218C10.422 359.218 4.24951 353.045 4.24951 345.431H-3.75049ZM18.0361 367.218C25.6373 367.218 32.7759 363.319 36.9866 357.414L30.4732 352.769C27.7087 356.646 22.9581 359.218 18.0361 359.218V367.218ZM33.7144 359.092L107.275 359.376L107.305 351.376L33.7453 351.092L33.7144 359.092ZM110.062 358.259L119.33 349.348L113.785 343.581L104.518 352.493L110.062 358.259ZM116.628 350.464L128.712 350.25L128.57 342.252L116.487 342.465L116.628 350.464ZM128.655 350.251L276.971 349.752L276.945 341.752L128.628 342.251L128.655 350.251ZM277.648 349.692C299.782 345.819 317.116 336.524 329.628 323.26C342.125 310.011 349.608 293.016 352.418 274.051L344.504 272.879C341.896 290.485 335.014 305.891 323.808 317.771C312.615 329.637 296.908 338.2 276.268 341.812L277.648 349.692ZM352.461 273.493L353.495 127.172L345.495 127.116L344.461 273.437L352.461 273.493ZM353.494 127.205L353.672 115.549L345.673 115.427L345.495 127.083L353.494 127.205ZM352.563 118.253L360.405 110.055L354.624 104.525L346.782 112.723L352.563 118.253ZM361.515 107.29V34.1421H353.515V107.29H361.515Z" fill="url(#paint0_linear)" mask="url(#path-1-inside-1)"/>
<mask id="path-3-inside-2" fill="white">
<path fill-rule="evenodd" clip-rule="evenodd" d="M120.101 309.332C120.101 309.332 120.101 309.688 118.568 310.258L118.675 322.52H130.081V310.045C130.064 309.727 129.715 309.445 129.367 309.163C129.011 308.875 128.656 308.587 128.656 308.262C128.299 291.153 121.848 277.216 111.903 266.558C113.895 257.773 107.625 249.05 95.5063 250.518C80.6782 240.003 67.7036 236.546 53.8022 235.547V234.835H40.2573V245.528H54.5151V244.459C68.06 246.241 79.0385 248.451 84.8129 255.508L79.8437 263.015C89.8241 269.431 93.9337 273.75 99.3014 281.801L107.625 277.608C114.826 279.319 121.848 303.236 120.101 309.332ZM20.1286 253.621C79.7263 248.881 113.391 279.789 109.366 342.188L103.327 342.187C107.961 288.364 77.8308 254.963 20.1286 260.331V253.621ZM19.896 332.064C25.1357 334.631 28.7672 338.088 30.1929 342.188H101.314C101.314 339.634 101.302 336.088 101.291 332.855L101.291 332.845C101.281 330.136 101.272 327.648 101.272 326.147L55.6893 326.085V318.033L89.908 288.511C85.2113 282.473 79.8437 276.434 73.8051 272.408L44.283 305.956H35.5606L36.2315 261.673C31.5978 261.316 26.0456 261.138 20.1286 261.673L19.896 332.064Z"/>
</mask>
<path fill-rule="evenodd" clip-rule="evenodd" d="M120.101 309.332C120.101 309.332 120.101 309.688 118.568 310.258L118.675 322.52H130.081V310.045C130.064 309.727 129.715 309.445 129.367 309.163C129.011 308.875 128.656 308.587 128.656 308.262C128.299 291.153 121.848 277.216 111.903 266.558C113.895 257.773 107.625 249.05 95.5063 250.518C80.6782 240.003 67.7036 236.546 53.8022 235.547V234.835H40.2573V245.528H54.5151V244.459C68.06 246.241 79.0385 248.451 84.8129 255.508L79.8437 263.015C89.8241 269.431 93.9337 273.75 99.3014 281.801L107.625 277.608C114.826 279.319 121.848 303.236 120.101 309.332ZM20.1286 253.621C79.7263 248.881 113.391 279.789 109.366 342.188L103.327 342.187C107.961 288.364 77.8308 254.963 20.1286 260.331V253.621ZM19.896 332.064C25.1357 334.631 28.7672 338.088 30.1929 342.188H101.314C101.314 339.634 101.302 336.088 101.291 332.855L101.291 332.845C101.281 330.136 101.272 327.648 101.272 326.147L55.6893 326.085V318.033L89.908 288.511C85.2113 282.473 79.8437 276.434 73.8051 272.408L44.283 305.956H35.5606L36.2315 261.673C31.5978 261.316 26.0456 261.138 20.1286 261.673L19.896 332.064Z" fill="#160B31"/>
<path d="M118.568 310.258L118.22 309.321L117.562 309.566L117.568 310.267L118.568 310.258ZM120.101 309.332L119.14 309.056L119.101 309.191V309.332L120.101 309.332ZM118.675 322.52L117.675 322.529L117.684 323.52H118.675V322.52ZM130.081 322.52V323.52H131.081V322.52H130.081ZM130.081 310.045H131.081V310.017L131.08 309.989L130.081 310.045ZM129.367 309.163L129.997 308.386L129.367 309.163ZM128.656 308.262H129.656V308.252L129.656 308.241L128.656 308.262ZM111.903 266.558L110.928 266.337L110.81 266.853L111.172 267.24L111.903 266.558ZM95.5063 250.518L94.9278 251.334L95.243 251.557L95.6265 251.511L95.5063 250.518ZM53.8022 235.547H52.8022V236.478L53.7306 236.545L53.8022 235.547ZM53.8022 234.835H54.8022V233.835H53.8022V234.835ZM40.2573 234.835V233.835H39.2573V234.835H40.2573ZM40.2573 245.528H39.2573V246.528H40.2573V245.528ZM54.5151 245.528V246.528H55.5151V245.528H54.5151ZM54.5151 244.459L54.6455 243.467L53.5151 243.318V244.459H54.5151ZM84.8129 255.508L85.6468 256.06L86.0537 255.446L85.5869 254.875L84.8129 255.508ZM79.8437 263.015L79.0098 262.463L78.4504 263.308L79.3029 263.856L79.8437 263.015ZM99.3014 281.801L98.4694 282.356L98.9605 283.093L99.7513 282.695L99.3014 281.801ZM107.625 277.608L107.857 276.635L107.502 276.551L107.176 276.715L107.625 277.608ZM109.366 342.188L109.366 343.188L110.303 343.188L110.364 342.252L109.366 342.188ZM20.1286 253.621L20.0493 252.624L19.1286 252.698V253.621H20.1286ZM103.327 342.187L102.331 342.102L102.237 343.187L103.327 343.187L103.327 342.187ZM20.1286 260.331H19.1286V261.428L20.2212 261.327L20.1286 260.331ZM30.1929 342.188L29.2484 342.516L29.482 343.188H30.1929V342.188ZM19.896 332.064L18.896 332.061L18.8939 332.687L19.4561 332.963L19.896 332.064ZM101.314 342.188V343.188H102.314V342.188H101.314ZM101.291 332.855L102.291 332.851V332.85L101.291 332.855ZM101.291 332.845L100.291 332.848V332.85L101.291 332.845ZM101.272 326.147H102.272V325.149L101.274 325.147L101.272 326.147ZM55.6893 326.085H54.6893V327.083L55.6879 327.085L55.6893 326.085ZM55.6893 318.033L55.036 317.276L54.6893 317.575V318.033H55.6893ZM89.908 288.511L90.5612 289.268L91.2809 288.647L90.6974 287.897L89.908 288.511ZM73.8051 272.408L74.3598 271.576L73.6321 271.091L73.0544 271.748L73.8051 272.408ZM44.283 305.956V306.956H44.7351L45.0337 306.617L44.283 305.956ZM35.5606 305.956L34.5607 305.941L34.5453 306.956H35.5606V305.956ZM36.2315 261.673L37.2314 261.688L37.2457 260.748L36.3082 260.676L36.2315 261.673ZM20.1286 261.673L20.0386 260.677L19.1316 260.759L19.1286 261.67L20.1286 261.673ZM118.917 311.196C119.731 310.893 120.235 310.613 120.551 310.348C120.714 310.212 120.85 310.06 120.947 309.889C120.997 309.802 121.036 309.71 121.062 309.614C121.075 309.566 121.085 309.518 121.092 309.471C121.095 309.447 121.097 309.423 121.099 309.4C121.099 309.389 121.1 309.377 121.1 309.366C121.101 309.36 121.101 309.354 121.101 309.349C121.101 309.346 121.101 309.343 121.101 309.34C121.101 309.339 121.101 309.337 121.101 309.336C121.101 309.334 121.101 309.332 120.101 309.332C119.101 309.332 119.101 309.33 119.101 309.327C119.101 309.327 119.101 309.325 119.101 309.323C119.101 309.32 119.101 309.318 119.101 309.315C119.101 309.309 119.101 309.304 119.102 309.298C119.102 309.287 119.103 309.276 119.103 309.265C119.105 309.243 119.107 309.222 119.11 309.201C119.116 309.159 119.124 309.119 119.134 309.082C119.154 309.008 119.181 308.948 119.207 308.904C119.256 308.817 119.296 308.79 119.268 308.814C119.201 308.87 118.938 309.054 118.22 309.321L118.917 311.196ZM119.675 322.511L119.568 310.25L117.568 310.267L117.675 322.529L119.675 322.511ZM130.081 321.52H118.675V323.52H130.081V321.52ZM129.081 310.045V322.52H131.081V310.045H129.081ZM128.738 309.94C128.827 310.013 128.901 310.073 128.968 310.131C129.034 310.188 129.08 310.232 129.11 310.265C129.141 310.299 129.141 310.306 129.131 310.286C129.118 310.264 129.089 310.198 129.083 310.1L131.08 309.989C131.052 309.484 130.772 309.119 130.587 308.916C130.393 308.705 130.155 308.515 129.997 308.386L128.738 309.94ZM127.656 308.262C127.656 308.796 127.945 309.184 128.134 309.394C128.331 309.614 128.577 309.81 128.738 309.94L129.997 308.386C129.905 308.312 129.83 308.251 129.763 308.192C129.695 308.134 129.651 308.09 129.622 308.058C129.592 308.025 129.596 308.022 129.61 308.049C129.625 308.08 129.656 308.155 129.656 308.262H127.656ZM111.172 267.24C120.958 277.728 127.305 291.433 127.656 308.283L129.656 308.241C129.294 290.873 122.737 276.704 112.634 265.876L111.172 267.24ZM95.6265 251.511C101.419 250.809 105.677 252.548 108.259 255.368C110.851 258.201 111.857 262.236 110.928 266.337L112.878 266.779C113.94 262.095 112.807 257.376 109.734 254.018C106.649 250.648 101.713 248.759 95.3861 249.525L95.6265 251.511ZM53.7306 236.545C67.477 237.532 80.2698 240.939 94.9278 251.334L96.0848 249.702C81.0866 239.067 67.9302 235.559 53.8738 234.55L53.7306 236.545ZM52.8022 234.835V235.547H54.8022V234.835H52.8022ZM40.2573 235.835H53.8022V233.835H40.2573V235.835ZM41.2573 245.528V234.835H39.2573V245.528H41.2573ZM54.5151 244.528H40.2573V246.528H54.5151V244.528ZM53.5151 244.459V245.528H55.5151V244.459H53.5151ZM85.5869 254.875C82.5309 251.14 78.1409 248.742 72.8838 247.053C67.631 245.366 61.4218 244.359 54.6455 243.467L54.3846 245.45C61.1533 246.341 67.2058 247.33 72.2721 248.957C77.3341 250.583 81.3206 252.819 84.039 256.142L85.5869 254.875ZM80.6775 263.567L85.6468 256.06L83.9791 254.956L79.0098 262.463L80.6775 263.567ZM100.133 281.247C94.6883 273.079 90.4789 268.663 80.3844 262.174L79.3029 263.856C89.1694 270.199 93.1792 274.421 98.4694 282.356L100.133 281.247ZM107.176 276.715L98.8515 280.908L99.7513 282.695L108.075 278.501L107.176 276.715ZM121.062 309.607C121.567 307.847 121.413 305.011 120.887 301.878C120.352 298.69 119.397 295.021 118.162 291.495C116.928 287.974 115.4 284.557 113.701 281.892C112.852 280.559 111.943 279.389 110.987 278.486C110.036 277.587 108.988 276.904 107.857 276.635L107.394 278.581C108.063 278.74 108.809 279.179 109.613 279.939C110.413 280.695 111.221 281.721 112.015 282.967C113.603 285.459 115.071 288.722 116.275 292.156C117.476 295.586 118.4 299.145 118.915 302.21C119.439 305.33 119.509 307.769 119.14 309.056L121.062 309.607ZM110.364 342.252C112.388 310.876 104.946 287.217 89.303 272.01C73.6629 256.806 50.0193 250.24 20.0493 252.624L20.2079 254.618C49.8355 252.261 72.8233 258.779 87.9089 273.444C102.991 288.106 110.369 311.101 108.368 342.123L110.364 342.252ZM103.327 343.187L109.366 343.188L109.366 341.188L103.327 341.187L103.327 343.187ZM20.2212 261.327C48.8713 258.662 70.4959 265.632 84.3908 279.764C98.2911 293.901 104.631 315.382 102.331 342.102L104.323 342.273C106.657 315.17 100.249 293.039 85.8169 278.362C71.3796 263.679 49.0881 256.633 20.036 259.335L20.2212 261.327ZM19.1286 253.621V260.331H21.1286V253.621H19.1286ZM31.1374 341.859C29.5936 337.42 25.7095 333.798 20.3359 331.166L19.4561 332.963C24.562 335.463 27.9407 338.756 29.2484 342.516L31.1374 341.859ZM101.314 341.188H30.1929V343.188H101.314V341.188ZM100.291 332.858C100.302 336.092 100.314 339.636 100.314 342.188H102.314C102.314 339.632 102.302 336.084 102.291 332.851L100.291 332.858ZM100.291 332.85L100.291 332.859L102.291 332.85L102.291 332.84L100.291 332.85ZM100.272 326.147C100.272 327.65 100.281 330.14 100.291 332.848L102.291 332.841C102.281 330.132 102.272 327.645 102.272 326.147H100.272ZM55.6879 327.085L101.271 327.147L101.274 325.147L55.6907 325.085L55.6879 327.085ZM54.6893 318.033V326.085H56.6893V318.033H54.6893ZM89.2548 287.754L55.036 317.276L56.3425 318.79L90.5612 289.268L89.2548 287.754ZM73.2504 273.24C79.1506 277.174 84.4381 283.107 89.1187 289.125L90.6974 287.897C85.9846 281.838 80.5368 275.694 74.3598 271.576L73.2504 273.24ZM45.0337 306.617L74.5558 273.069L73.0544 271.748L43.5323 305.295L45.0337 306.617ZM35.5606 306.956H44.283V304.956H35.5606V306.956ZM35.2317 261.658L34.5607 305.941L36.5605 305.971L37.2314 261.688L35.2317 261.658ZM20.2186 262.669C26.0621 262.141 31.5549 262.316 36.1549 262.67L36.3082 260.676C31.6406 260.317 26.0291 260.136 20.0386 260.677L20.2186 262.669ZM20.896 332.068L21.1286 261.676L19.1286 261.67L18.896 332.061L20.896 332.068Z" fill="url(#paint1_linear)" mask="url(#path-3-inside-2)"/>
<mask id="path-5-inside-3" fill="white">
<path fill-rule="evenodd" clip-rule="evenodd" d="M243.608 55.6685C243.608 55.6685 243.608 55.3121 245.139 54.7418L245.032 42.4801L233.641 42.4801L233.641 54.9556C233.659 55.2727 234.007 55.555 234.355 55.8369C234.71 56.1253 235.065 56.4134 235.065 56.7379C235.421 73.8472 241.864 87.7843 251.796 98.442C249.806 107.227 256.067 115.95 268.17 114.482C282.978 124.997 295.935 128.455 309.818 129.453L309.818 130.166L323.344 130.166L323.344 119.472L309.106 119.472L309.106 120.542C295.579 118.759 284.615 116.549 278.849 109.492L283.811 101.985C273.844 95.5694 269.74 91.2502 264.38 83.1987L256.067 87.3922C248.877 85.6812 241.864 61.7637 243.608 55.6685ZM343.446 111.379C283.928 116.12 250.309 85.2116 254.329 22.8125L260.359 22.8127C255.732 76.636 285.821 110.037 343.446 104.669L343.446 111.379ZM343.678 32.9357C338.446 30.3693 334.819 26.9118 333.395 22.8127L262.37 22.8127C262.37 25.3691 262.382 28.9195 262.394 32.1552C262.403 34.8642 262.412 37.3526 262.412 38.8527L307.933 38.9156L307.933 46.9671L273.761 76.489C278.451 82.5276 283.811 88.5662 289.842 92.5919L319.324 59.0443L328.035 59.0443L327.365 103.327C331.992 103.684 337.537 103.862 343.446 103.327L343.678 32.9357Z"/>
</mask>
<path fill-rule="evenodd" clip-rule="evenodd" d="M243.608 55.6685C243.608 55.6685 243.608 55.3121 245.139 54.7418L245.032 42.4801L233.641 42.4801L233.641 54.9556C233.659 55.2727 234.007 55.555 234.355 55.8369C234.71 56.1253 235.065 56.4134 235.065 56.7379C235.421 73.8472 241.864 87.7843 251.796 98.442C249.806 107.227 256.067 115.95 268.17 114.482C282.978 124.997 295.935 128.455 309.818 129.453L309.818 130.166L323.344 130.166L323.344 119.472L309.106 119.472L309.106 120.542C295.579 118.759 284.615 116.549 278.849 109.492L283.811 101.985C273.844 95.5694 269.74 91.2502 264.38 83.1987L256.067 87.3922C248.877 85.6812 241.864 61.7637 243.608 55.6685ZM343.446 111.379C283.928 116.12 250.309 85.2116 254.329 22.8125L260.359 22.8127C255.732 76.636 285.821 110.037 343.446 104.669L343.446 111.379ZM343.678 32.9357C338.446 30.3693 334.819 26.9118 333.395 22.8127L262.37 22.8127C262.37 25.3691 262.382 28.9195 262.394 32.1552C262.403 34.8642 262.412 37.3526 262.412 38.8527L307.933 38.9156L307.933 46.9671L273.761 76.489C278.451 82.5276 283.811 88.5662 289.842 92.5919L319.324 59.0443L328.035 59.0443L327.365 103.327C331.992 103.684 337.537 103.862 343.446 103.327L343.678 32.9357Z" fill="#160B31"/>
<path d="M245.139 54.7418L245.488 55.6788L246.145 55.4341L246.139 54.7331L245.139 54.7418ZM243.608 55.6685L244.57 55.9437L244.608 55.8088L244.608 55.6685L243.608 55.6685ZM245.032 42.4801L246.032 42.4714L246.024 41.4801L245.032 41.4801L245.032 42.4801ZM233.641 42.4801L233.641 41.4801L232.641 41.4801L232.641 42.4801L233.641 42.4801ZM233.641 54.9556L232.641 54.9556L232.641 54.9834L232.643 55.011L233.641 54.9556ZM234.355 55.8369L234.984 55.0603L234.984 55.0603L234.355 55.8369ZM235.065 56.7379L234.065 56.7379L234.065 56.7483L234.065 56.7587L235.065 56.7379ZM251.796 98.442L252.771 98.6628L252.888 98.1471L252.527 97.7602L251.796 98.442ZM268.17 114.482L268.749 113.667L268.433 113.443L268.05 113.489L268.17 114.482ZM309.818 129.453L310.818 129.453L310.818 128.522L309.889 128.455L309.818 129.453ZM309.818 130.166L308.818 130.166L308.818 131.166L309.818 131.166L309.818 130.166ZM323.344 130.166L323.344 131.166L324.344 131.166L324.344 130.166L323.344 130.166ZM323.344 119.472L324.344 119.472L324.344 118.472L323.344 118.472L323.344 119.472ZM309.106 119.472L309.106 118.472L308.106 118.472L308.106 119.472L309.106 119.472ZM309.106 120.542L308.975 121.533L310.106 121.682L310.106 120.542L309.106 120.542ZM278.849 109.492L278.015 108.94L277.609 109.554L278.074 110.124L278.849 109.492ZM283.811 101.985L284.646 102.537L285.204 101.693L284.353 101.145L283.811 101.985ZM264.38 83.1987L265.212 82.6445L264.721 81.9066L263.93 82.3059L264.38 83.1987ZM256.067 87.3922L255.836 88.365L256.191 88.4496L256.518 88.285L256.067 87.3922ZM254.329 22.8125L254.329 21.8125L253.391 21.8124L253.331 22.7482L254.329 22.8125ZM343.446 111.379L343.525 112.376L344.446 112.302L344.446 111.379L343.446 111.379ZM260.359 22.8127L261.356 22.8983L261.449 21.8127L260.359 21.8127L260.359 22.8127ZM343.446 104.669L344.446 104.669L344.446 103.572L343.353 103.673L343.446 104.669ZM333.395 22.8127L334.34 22.4845L334.106 21.8127L333.395 21.8127L333.395 22.8127ZM343.678 32.9357L344.678 32.939L344.68 32.3134L344.119 32.0379L343.678 32.9357ZM262.37 22.8127L262.37 21.8127L261.37 21.8127L261.37 22.8127L262.37 22.8127ZM262.394 32.1552L261.394 32.1587L262.394 32.1552ZM262.412 38.8527L261.412 38.8527L261.412 39.8513L262.41 39.8527L262.412 38.8527ZM307.933 38.9156L308.933 38.9156L308.933 37.917L307.935 37.9156L307.933 38.9156ZM307.933 46.9671L308.587 47.7238L308.933 47.4246L308.933 46.9671L307.933 46.9671ZM273.761 76.489L273.107 75.7323L272.389 76.3528L272.971 77.1024L273.761 76.489ZM289.842 92.5919L289.287 93.4236L290.015 93.9098L290.593 93.2521L289.842 92.5919ZM319.324 59.0443L319.324 58.0443L318.872 58.0443L318.573 58.3842L319.324 59.0443ZM328.035 59.0443L329.035 59.0594L329.05 58.0443L328.035 58.0443L328.035 59.0443ZM327.365 103.327L326.365 103.312L326.351 104.252L327.288 104.324L327.365 103.327ZM343.446 103.327L343.536 104.323L344.443 104.241L344.446 103.331L343.446 103.327ZM244.79 53.8047C243.977 54.1077 243.474 54.3874 243.157 54.6527C242.995 54.7891 242.859 54.9403 242.762 55.112C242.713 55.199 242.674 55.2908 242.647 55.3867C242.634 55.4344 242.624 55.4822 242.618 55.5297C242.615 55.5534 242.612 55.5769 242.611 55.6001C242.61 55.6117 242.609 55.6232 242.609 55.6346C242.609 55.6403 242.609 55.646 242.609 55.6517C242.608 55.6545 242.608 55.6573 242.608 55.6601C242.608 55.6615 242.608 55.6636 242.608 55.6643C242.608 55.6664 242.608 55.6685 243.608 55.6685C244.608 55.6685 244.608 55.6706 244.608 55.6727C244.608 55.6734 244.608 55.6755 244.608 55.6769C244.608 55.6797 244.608 55.6825 244.608 55.6853C244.608 55.6908 244.608 55.6964 244.608 55.7019C244.607 55.713 244.607 55.724 244.606 55.7349C244.605 55.7567 244.602 55.7781 244.6 55.799C244.594 55.8411 244.586 55.8806 244.575 55.9175C244.555 55.9917 244.528 56.0512 244.503 56.0959C244.454 56.1829 244.414 56.2093 244.442 56.1854C244.508 56.1299 244.771 55.9462 245.488 55.6788L244.79 53.8047ZM244.032 42.4888L244.139 54.7505L246.139 54.7331L246.032 42.4714L244.032 42.4888ZM233.641 43.4801L245.032 43.4801L245.032 41.4801L233.641 41.4801L233.641 43.4801ZM234.641 54.9556L234.641 42.4801L232.641 42.4801L232.641 54.9556L234.641 54.9556ZM234.984 55.0603C234.895 54.9877 234.822 54.928 234.755 54.8701C234.688 54.8124 234.643 54.7689 234.613 54.7356C234.582 54.7013 234.582 54.6947 234.592 54.7143C234.605 54.737 234.634 54.8021 234.64 54.9002L232.643 55.011C232.671 55.5161 232.951 55.8808 233.135 56.0833C233.329 56.2952 233.566 56.4851 233.725 56.6136L234.984 55.0603ZM236.065 56.7379C236.065 56.2042 235.777 55.817 235.588 55.6064C235.391 55.3869 235.146 55.191 234.984 55.0603L233.725 56.6135C233.816 56.6878 233.891 56.7486 233.958 56.8074C234.026 56.8661 234.07 56.9093 234.099 56.9414C234.128 56.9746 234.124 56.9771 234.111 56.9505C234.095 56.9195 234.065 56.8446 234.065 56.7379L236.065 56.7379ZM252.527 97.7602C242.754 87.2727 236.416 73.5677 236.065 56.7171L234.065 56.7587C234.427 74.1267 240.974 88.2958 251.064 99.1237L252.527 97.7602ZM268.05 113.489C262.266 114.191 258.014 112.452 255.436 109.632C252.847 106.799 251.842 102.765 252.771 98.6628L250.82 98.2211C249.76 102.904 250.891 107.624 253.96 110.982C257.041 114.352 261.971 116.241 268.29 115.475L268.05 113.489ZM309.889 128.455C296.162 127.468 283.387 124.061 268.749 113.667L267.591 115.297C282.569 125.933 295.708 129.441 309.746 130.45L309.889 128.455ZM310.818 130.166L310.818 129.453L308.818 129.453L308.818 130.166L310.818 130.166ZM323.344 129.166L309.818 129.166L309.818 131.166L323.344 131.166L323.344 129.166ZM322.344 119.472L322.344 130.166L324.344 130.166L324.344 119.472L322.344 119.472ZM309.106 120.472L323.344 120.472L323.344 118.472L309.106 118.472L309.106 120.472ZM310.106 120.542L310.106 119.472L308.106 119.472L308.106 120.542L310.106 120.542ZM278.074 110.124C281.126 113.86 285.511 116.258 290.761 117.947C296.007 119.634 302.208 120.641 308.975 121.533L309.236 119.55C302.477 118.66 296.433 117.67 291.374 116.043C286.319 114.417 282.338 112.181 279.623 108.859L278.074 110.124ZM282.977 101.434L278.015 108.94L279.683 110.043L284.646 102.537L282.977 101.434ZM263.548 83.7529C268.985 91.9206 273.189 96.3369 283.27 102.826L284.353 101.145C274.5 94.802 270.495 90.5797 265.212 82.6445L263.548 83.7529ZM256.518 88.285L264.83 84.0915L263.93 82.3059L255.617 86.4993L256.518 88.285ZM242.647 55.3934C242.143 57.1531 242.296 59.9893 242.822 63.1216C243.357 66.3094 244.31 69.9791 245.543 73.5048C246.775 77.0256 248.302 80.443 249.998 83.1077C250.846 84.4402 251.753 85.6102 252.708 86.5141C253.658 87.413 254.705 88.096 255.836 88.365L256.299 86.4193C255.631 86.2606 254.887 85.8219 254.083 85.0616C253.285 84.3061 252.478 83.2793 251.685 82.0336C250.099 79.5421 248.633 76.2785 247.431 72.8441C246.231 69.4146 245.308 65.8552 244.794 62.7907C244.271 59.6707 244.201 57.2316 244.57 55.9437L242.647 55.3934ZM253.331 22.7482C251.31 54.1243 258.741 77.7828 274.363 92.9897C289.982 108.194 313.595 114.76 343.525 112.376L343.366 110.382C313.779 112.739 290.823 106.221 275.758 91.5565C260.696 76.8948 253.328 53.8998 255.327 22.8768L253.331 22.7482ZM260.359 21.8127L254.329 21.8125L254.329 23.8125L260.359 23.8127L260.359 21.8127ZM343.353 103.673C314.742 106.339 293.147 99.3679 279.272 85.2369C265.39 71.1 259.058 49.6187 261.356 22.8983L259.363 22.727C257.033 49.8299 263.432 71.9607 277.845 86.6382C292.263 101.321 314.525 108.367 343.538 105.665L343.353 103.673ZM344.446 111.379L344.446 104.669L342.446 104.669L342.446 111.379L344.446 111.379ZM332.451 23.1408C333.992 27.5791 337.871 31.2014 343.238 33.8336L344.119 32.0379C339.02 29.5373 335.646 26.2444 334.34 22.4845L332.451 23.1408ZM262.37 23.8127L333.395 23.8127L333.395 21.8127L262.37 21.8127L262.37 23.8127ZM263.393 32.1517C263.382 28.9153 263.37 25.367 263.37 22.8127L261.37 22.8127C261.37 25.3712 261.382 28.9236 261.394 32.1587L263.393 32.1517ZM263.412 38.8527C263.412 37.3504 263.403 34.8598 263.393 32.1517L261.394 32.1587C261.403 34.8686 261.412 37.3548 261.412 38.8527L263.412 38.8527ZM307.935 37.9156L262.413 37.8527L262.41 39.8527L307.932 39.9156L307.935 37.9156ZM308.933 46.9671L308.933 38.9156L306.933 38.9156L306.933 46.9671L308.933 46.9671ZM274.414 77.2457L308.587 47.7238L307.28 46.2103L273.107 75.7323L274.414 77.2457ZM290.397 91.7602C284.505 87.8269 279.225 81.8935 274.55 75.8756L272.971 77.1024C277.677 83.1617 283.118 89.3055 289.287 93.4236L290.397 91.7602ZM318.573 58.3842L289.091 91.9318L290.593 93.2521L320.075 59.7044L318.573 58.3842ZM328.035 58.0443L319.324 58.0443L319.324 60.0443L328.035 60.0443L328.035 58.0443ZM328.365 103.342L329.035 59.0594L327.035 59.0292L326.365 103.312L328.365 103.342ZM343.356 102.331C337.52 102.859 332.035 102.684 327.442 102.33L327.288 104.324C331.949 104.683 337.553 104.864 343.536 104.323L343.356 102.331ZM342.678 32.9324L342.446 103.324L344.446 103.331L344.678 32.939L342.678 32.9324Z" fill="url(#paint2_linear)" mask="url(#path-5-inside-3)"/>
<path fill-rule="evenodd" clip-rule="evenodd" d="M130.887 152.194L162.396 179.961C169.632 177.252 174.872 171.121 178.9 163.172C178.9 163.172 161.719 146.455 160.4 145.564C159.082 144.673 143.647 131.449 143.647 131.449L134.38 126.173L137.944 105.499C137.944 105.499 124.292 90.4931 123.401 90.0653C122.51 89.6376 91.0361 92.8813 91.0361 92.8813C88.7549 89.1742 87.6855 85.2177 87.2935 80.0136L71.7168 61.7279C59.8472 64.0805 58.8491 65.435 55.7837 73.9184C68.7227 88.7821 84.228 123.037 84.228 123.037C84.228 123.037 88.9688 131.52 92.7114 135.583L119.873 148.237L130.887 152.194ZM278.919 283.009L293.889 303.291C300.234 300.546 307.47 293.382 307.078 286.93L279.311 234.782L273.215 228.01L246.126 213.787C240.068 214.043 238.519 211.843 237.628 210.577C237.277 210.078 237.027 209.724 236.644 209.724C217.397 209.724 210.273 197.161 204.578 187.119C204.43 186.858 204.283 186.598 204.136 186.341C194.35 188.008 190.948 194.048 187.79 199.655L187.74 199.743L210.588 221.772L220.961 231.538C220.961 231.538 227.519 244.37 226.913 245.119C225.202 247.222 238.676 274.882 241.884 272.886C242.419 272.565 273.251 272.031 273.251 272.031C275.853 275.167 277.564 278.946 278.919 283.009Z" fill="#408EFF" fill-opacity="0.4"/>
<path fill-rule="evenodd" clip-rule="evenodd" d="M100.517 42.7734C102.3 42.0962 104.011 41.5615 105.508 41.3477H129.746C129.39 41.3477 134.237 52.6113 135.806 52.7539C137.445 52.9321 129.033 56.6748 123.758 56.1758C119.587 51.7915 113.492 50.936 104.795 52.7539L100.517 42.7734ZM71.8948 62.4849C71.6096 59.2769 71.7879 56.6392 72.7859 54.9995C77.8831 51.4351 83.3367 48.6548 89.0755 46.6231C91.2498 56.3184 94.8855 65.1582 103.012 73.4278C98.6638 78.6319 93.1033 81.3409 86.9011 80.5567L71.8948 62.4849ZM90.3588 94.2798C90.3588 94.2798 91.535 91.0361 93.745 90.5371C94.4465 90.386 95.6186 90.1892 96.904 89.9733L96.9045 89.9732L96.9048 89.9732C99.8646 89.4761 103.425 88.8781 103.226 88.5054C106.328 85.939 109.678 82.6953 111.211 79.8438C133.31 79.8438 141.865 93.7451 142.934 111.567C144.289 119.694 151.168 125.112 152.202 125.112C154.02 125.077 146 134.166 144.717 133.417C133.703 132.384 124.185 128.463 117.876 120.942C133.346 119.659 137.231 105.116 128.285 97.3096C116.415 92.2124 105.757 99.7334 109.429 113.35L107.29 116.914C101.801 111.532 95.8124 104.688 90.6796 97.3096L90.3588 94.2798ZM174.302 127.607C174.302 127.607 173.945 135.806 173.945 137.231C182.108 142.008 190.627 147.497 195.688 152.915L219.214 130.459C212.156 127.964 206.988 123.9 204.6 117.627H198.896C204.243 124.399 204.599 132.241 198.041 136.839C188.916 140.083 183.926 138.301 181.074 127.607H174.302ZM268.866 150.848C269.758 150.242 269.223 149.137 268.866 149.137C254.074 148.103 248.549 164.713 259.064 173.874C268.546 179.969 278.704 175.229 281.77 166.745C281.805 166.62 281.538 166.353 281.266 166.081L281.266 166.081C280.994 165.809 280.718 165.533 280.736 165.391C274.641 170.167 271.575 170.488 266.157 165.747C263.769 160.686 263.092 154.59 268.866 150.848ZM154.733 144.396L155.303 141.224C167.743 143.042 177.723 149.921 187.312 159.367C187.312 159.367 180.254 166.852 180.254 166.424C180.254 165.997 154.733 144.396 154.733 144.396ZM240.779 146.784L221.459 165.747C219.855 183.961 232.972 190.128 247.23 180.326C242.917 172.413 242.596 162.218 245.591 151.382L240.779 146.784ZM210.588 174.908C210.588 174.908 202.889 182.643 202.461 183.534C210.053 201.499 221.78 212.477 237 210.481C246.161 204.707 246.482 197.613 245.805 193.871C245.805 193.219 243.581 193.784 241.94 194.202C241.249 194.377 240.661 194.527 240.387 194.548C226.842 195.582 219 195.938 210.588 174.908ZM155.181 111.619C154.994 107.513 154.48 96.2048 152.701 94.9214L163.537 83.6934C164.088 83.7389 164.612 83.7735 165.102 83.8059C167.684 83.9766 169.341 84.0861 169.311 85.4043C163.18 91.4995 164.535 100.304 168.278 102.692C176.084 108.787 184.781 103.369 186.991 92.3907C189.878 97.2383 191.126 102.335 190.092 107.825C183.926 115.239 162.86 119.623 155.267 113.1C155.248 113.087 155.223 112.531 155.181 111.619L155.181 111.619ZM172.733 47.9419C172.733 47.9419 172.305 41.3477 172.733 41.3477L209.946 41.6685C210.566 41.594 210.859 44.6797 211.063 46.8389L211.063 46.8394L211.063 46.8399L211.063 46.8403L211.063 46.8407L211.063 46.8411L211.063 46.8415L211.063 46.8419L211.063 46.8422L211.063 46.8426L211.063 46.843L211.063 46.8433L211.064 46.8437C211.153 47.7845 211.225 48.5486 211.301 48.7974C213.154 55.5698 195.688 65.6572 192.837 61.9858C191.611 60.8703 190.5 59.8078 189.441 58.7957L189.441 58.7957C184.681 54.2453 180.985 50.712 172.733 47.9419ZM219.606 41.7398C224.454 50.544 216.754 63.2335 210.303 65.9424C215.186 72.2872 219.107 79.1309 220.818 84.7984C225.594 84.1924 228.624 82.7667 232.331 79.024C227.911 68.8653 226.307 56.0333 225.772 41.7398H219.606ZM115.132 69.1504C115.132 69.1504 112.031 64.5166 111.211 62.0215C112.274 62.1944 113.309 62.3674 114.317 62.5359C120.373 63.5481 125.468 64.3995 129.96 64.1245L129.97 64.1232C136.27 63.3045 137.377 63.1607 143.861 60.3818C143.861 60.4934 144.551 60.3765 145.456 60.2231C147.155 59.9352 149.614 59.5185 149.707 60.2393C150.135 63.875 152.701 70.3267 158.44 69.8633C165.497 69.0078 167.814 65.0869 167.244 57.9937C172.662 57.3164 176.725 60.7026 180.112 65.7998C179.114 68.8652 177.617 71.7168 175.692 74.2832C164.107 73.4277 153.592 75.103 140.796 80.2002C134.344 74.4258 126.823 70.6475 115.132 69.1504ZM189.629 77.6694C189.835 77.5767 189.71 77.6805 189.458 77.8912C188.836 78.4097 187.438 79.5761 188.274 80.0576C196.401 84.4775 204.029 98.4858 201.498 106.149L205.17 109.215C221.816 87.8281 203.53 66.4771 189.629 77.6694ZM221.139 94.6006C220.64 101.943 219.249 108.93 215.043 116.272L219.748 121.334C222.992 118.019 226.877 116.914 232.295 117.948L246.874 104.403L236.715 88.8261L221.139 94.6006ZM249.583 138.942L266.514 122.011C274.356 127.714 282.59 132.027 291.251 134.558C290.146 142.934 292.748 148.602 297.703 152.166C300.127 159.474 299.378 165.462 296.384 172.84H292.891C292.285 148.994 278.776 139.726 254.68 143.006L249.583 138.942ZM304.796 138.265L302.764 142.008C308.824 151.917 310.179 162.004 307.505 173.482C311.319 180.361 317.165 184.14 324.793 185.352L325.078 139.727C317.45 140.332 310.998 139.62 304.796 138.265ZM285.12 209.697C290.895 200.251 313.244 204.314 304.44 224.988C302.337 230.371 303.085 237.535 304.119 242.953L301.053 245.341C298.665 242.561 297.596 240.208 296.954 237.179C296.906 236.945 296.858 236.712 296.81 236.48C296.749 236.181 296.687 235.883 296.626 235.586L296.616 235.535C294.461 225.044 292.609 216.034 285.12 209.697ZM303.798 183.997L299.378 188.417C299.485 194.762 300.554 200.608 306.935 199.609C315.989 195.653 324.222 203.245 320.48 211.729C320.302 212.121 315.133 216.291 315.133 216.291C312.602 217.182 311.818 237.072 312.994 235.967C313.663 235.337 316.797 233.383 319.44 231.735L319.441 231.734L319.442 231.734L319.443 231.733L319.446 231.731C321.576 230.403 323.387 229.274 323.333 229.196C324.294 230.231 324.793 196.936 324.401 196.758C317.201 194.655 309.68 189.772 303.798 183.997ZM282.447 189.771C286.225 188.987 289.897 186.67 290.859 182.821C279.988 178.829 268.118 179.934 256.355 186.385C262.023 198.362 259.742 207.594 246.803 213.689L245.056 217.218C254.716 219.499 263.948 223.384 272.36 228.66C275.496 227.626 276.566 224.632 277.35 220.283C274.498 215.721 273.892 210.231 273.679 203.994C269.259 205.74 264.411 196.936 267.94 190.342C271.932 183.676 277.671 186.599 282.447 189.771ZM285.156 227.697C283.089 227.804 277.956 239.424 280.059 240.137C285.227 246.517 288.15 254.145 289.113 262.451C294.638 274.32 303.157 285.37 312.994 290.467C325.042 276.388 325.149 259.528 324.793 239.531C321.193 239.531 317.058 241.456 313.6 245.306C315.311 265.302 289.897 262.771 289.897 238.533L285.156 227.697ZM139.726 41.3477H163.965L163.252 48.4766L146.499 51.6846C143.041 47.8706 139.798 44.1279 139.726 41.3477ZM54.7482 73.8051C43.0212 85.2827 40.1696 101.572 42.2013 124.955C46.8708 125.418 51.7184 122.638 53.7145 118.86C52.0036 108.345 62.9821 99.3266 72.6774 112.087C75.8729 116.881 77.5474 123.129 79.4864 130.363C80.0131 132.329 80.5593 134.367 81.1608 136.468C83.5134 134.9 85.6164 131.621 87.6125 127.985C83.5134 121.212 77.5251 108.487 76.1349 97.9008C70.2892 88.3838 63.7306 81.1479 54.7482 73.8051ZM62.8753 121.533L65.9407 119.145C70.0042 124.92 72.1785 132.227 73.0696 139.142C74.0676 145.379 78.0955 150.477 82.2302 154.041C79.9846 162.346 60.8792 162.168 60.2019 148.623C60.6653 144.132 61.4495 140.746 62.8396 137.965C64.5862 134.437 64.3723 128.092 62.8753 121.533ZM52.7164 147.946C40.526 153.72 46.6212 170.651 60.8434 164.556C65.1207 163.95 67.0456 168.94 68.6496 174.679L62.8751 180.454C56.7086 174.929 49.4371 168.905 41.9874 167.336C41.5623 166.519 41.8273 141.752 41.8739 137.4V137.4L41.8739 137.399C41.8781 137.009 41.8805 136.783 41.8805 136.753C41.8805 136.316 46.805 133.239 50.3963 130.995C52.3721 129.761 53.9444 128.778 54.0709 128.626C56.1027 134.401 54.7482 140.817 52.7164 147.946ZM155.016 188.973C154.41 178.315 138.584 163.166 120.477 171.685C119.586 161.776 123.72 155.645 132.525 153.471C148.066 157.178 159.864 165.59 163.82 181.844C163.856 182.236 155.123 190.684 155.016 188.973ZM125.895 216.063L145.535 198.454C146.07 178.778 129.958 175.749 119.122 184.909C123.97 191.61 124.612 198.597 121.974 208.506C121.047 213.603 122.508 217.061 125.895 216.063ZM179.397 203.836L186.847 197.064C186.847 197.064 210.051 216.597 210.515 217.488C210.943 218.344 210.943 221.908 210.943 221.908C198.752 222.122 188.344 215.1 179.397 203.836ZM171.662 211.215L147.424 234.134C155.801 236.095 161.611 239.623 161.539 246.895H167.706L168.134 245.576C163.036 239.802 164.07 234.883 165.888 230.855C165.995 230.605 171.021 229.75 171.021 229.75C171.021 229.75 170.664 225.865 171.876 225.686C177.651 224.724 184.708 227.504 185.885 236.38H193.691L193.334 227.219C185.172 223.477 179.076 218.736 171.662 211.215ZM203.457 322.747V315.261C209.98 316.295 216.254 315.083 220.923 312.089L228.052 322.782L203.457 322.747ZM277.954 317.436C279.024 311.732 264.766 290.702 264.445 290.88C267.617 286.425 272.429 283.787 280.129 283.11L294.244 300.362L294.707 308.168C291.143 311.626 285.261 314.655 277.954 317.436ZM42.237 179.135V224.51C44.6067 224.629 46.8229 224.708 48.9993 224.785H48.9996C53.3704 224.942 57.5812 225.092 62.5543 225.544L64.9425 221.48C59.382 215.67 57.1364 204.193 59.1681 189.971C55.1759 183.163 49.3659 179.527 42.237 179.135ZM101.514 241.441C101.514 241.441 77.3112 229.251 75.1012 229.251L74.7804 219.021C64.9425 205.12 65.7623 202.054 70.5031 191.218C71.6793 189.971 72.9625 190.042 74.0675 190.862C74.7804 216.882 91.4977 223.94 111.494 220.447C116.514 222.295 116.665 223.344 116.935 225.228C116.977 225.524 117.023 225.841 117.09 226.185L101.514 241.441ZM84.9035 198.775C95.8108 190.897 110.781 200.878 96.7732 214.708C108.643 219.449 118.445 205.547 109.641 193.499C101.835 184.232 87.2917 188.295 84.9035 198.775ZM134.699 246.503L120.12 259.727L130.279 275.304L146.069 269.672C146.426 261.688 147.495 254.701 151.915 247.394C150.988 245.291 148.6 243.901 144.858 243.438C142.184 246.004 139.19 246.61 134.699 246.503ZM180.11 269.886C176.011 270.206 176.581 255.093 177.365 254.951C189.734 247.038 200.677 245.006 211.37 250.032C210.871 257.268 211.263 263.648 213.58 268.103C208.162 278.939 202.958 281.042 197.291 279.118C211.62 261.973 185.991 248.321 180.11 269.886ZM164.854 257.695C164.854 257.695 162.145 255.343 161.789 254.986C143.503 278.333 166.529 299.328 178.756 284.464C169.131 279.046 164.997 269.672 164.854 257.695ZM134.699 284.785C138.762 282.326 143.075 279.902 146.889 279.688C148.6 286.817 151.987 292.235 157.048 297.653C147.21 303.071 145.856 309.558 147.21 322.746H141.115C140.865 308.275 138.762 295.621 134.699 284.785ZM173.658 301.039C159.614 303.891 154.767 310.699 155.694 322.782H193.833L193.976 316.295C184.851 312.231 179.076 307.811 173.658 301.039ZM198.61 306.029C192.942 306.849 188.38 302.821 185.849 297.332L190.269 290.203C202.031 290.916 213.117 288.492 225.165 283.431C232.472 290.025 242.381 294.266 252.397 295.015L256.568 302.108C242.132 299.542 229.478 301.039 217.002 304.603C215.969 288.528 197.754 292.377 199.073 306.029H198.61ZM236.999 322.747C236.821 319.146 235.252 315.938 231.652 312.196C232.935 309.237 236.642 307.811 243.985 308.631C247.122 312.445 253.181 313.016 262.057 311.839L265.8 320.679C264.802 321.499 263.661 322.105 262.413 322.39L236.999 322.747ZM89.3235 144.239C89.3235 144.239 92.4602 134.971 93.0662 135.755C93.2484 136.004 93.2767 135.991 93.3513 135.955C93.4373 135.915 93.5849 135.845 94.0999 136.112C101.229 139.854 115.451 146.627 122.901 146.27C123.899 146.235 121.546 149.657 121.546 149.657C108.607 155.217 105.577 164.235 110.354 177.424C109.712 182.343 82.9788 183.768 76.7766 181.166C77.8816 178.529 80.9114 175.713 83.3352 174.144C103.653 184.66 106.968 162.025 92.7097 159.815C93.4226 153.542 92.282 148.944 89.3235 144.239ZM214.935 238.982C214.4 238.305 219.604 231.675 220.21 231.924C233.327 230.998 242.951 234.99 249.724 242.939C231.474 242.475 229.371 261.616 239.601 267.177C249.474 272.559 265.443 260.012 257.672 250.887L261.201 248.677C264.267 250.923 267.19 253.24 269.15 256.163C272.287 260.796 274.39 265.038 274.639 267.89L273.998 274.234C264.98 274.163 259.704 278.155 256.389 284.358C234.646 285.462 224.844 271.953 223.775 250.424C222.099 245.505 219.747 241.049 214.935 238.982Z" fill="#00CBE0"/>
<defs>
<linearGradient id="paint0_linear" x1="181.532" y1="1.93635" x2="181.532" y2="363.218" gradientUnits="userSpaceOnUse">
<stop stop-color="#C79A3C"/>
<stop offset="0.390625" stop-color="#A6843C"/>
<stop offset="1" stop-color="#614B1D"/>
</linearGradient>
<linearGradient id="paint1_linear" x1="74.9887" y1="234.835" x2="74.9887" y2="342.188" gradientUnits="userSpaceOnUse">
<stop stop-color="#C79A3C"/>
<stop offset="0.390625" stop-color="#A6843C"/>
<stop offset="1" stop-color="#614B1D"/>
</linearGradient>
<linearGradient id="paint2_linear" x1="288.66" y1="130.166" x2="288.66" y2="22.8125" gradientUnits="userSpaceOnUse">
<stop stop-color="#C79A3C"/>
<stop offset="0.390625" stop-color="#A6843C"/>
<stop offset="1" stop-color="#614B1D"/>
</linearGradient>
</defs>
</svg>
