<svg width="32" height="32" viewBox="0 0 32 32" fill="none" xmlns="http://www.w3.org/2000/svg">
<path fill-rule="evenodd" clip-rule="evenodd" d="M17.0242 13.7923L18.9273 18.6145C19.4767 17.3111 19.9866 16.0509 20.0898 15.2251C19.8045 12.7785 21.568 8.44628 23.4286 4C23.0659 4.48384 22.6967 4.97225 22.3281 5.45997L22.3278 5.46044C19.7481 8.87369 17.1942 12.2529 17.0242 13.7923ZM16.1593 28C19.6863 20.0226 14.6417 12.2855 8.85037 4.54844L9.00494 4.92481C10.9129 9.56944 12.8201 14.2123 12.3561 18.3556C11.0358 14.9508 7.57556 12.9726 4 11.0777C6.47679 15.1942 8.80484 19.2122 8.60451 21.5108L16.1593 28ZM28.0001 10.7755C23.7507 13.7582 20.1084 17.0429 20.1084 24.5427L24.0543 21.0886C23.0951 18.3154 25.1955 14.7288 28.0001 10.7755Z" fill="#00CBE0"/>
</svg>
