<svg width="32" height="32" viewBox="0 0 32 32" fill="none" xmlns="http://www.w3.org/2000/svg">
<mask id="path-1-inside-1" fill="white">
<path fill-rule="evenodd" clip-rule="evenodd" d="M31.3436 2.99327C31.6654 2.72975 31.8082 2.27249 31.8082 1.72914C31.8082 0.867925 31.1101 0.169769 30.2489 0.169769C29.6897 0.169769 29.1993 0.464086 28.924 0.906257H22.5624L21.8749 1.59376L20.5624 1.62501H7.68735C4.4686 2.18751 2.12798 4.27501 1.43735 7.84376V20.125V21.6875L0.677977 22.5188L0.687352 28.875V29.0064C0.284878 29.2884 0.0217285 29.7557 0.0217285 30.2844C0.0217285 31.1456 0.719884 31.8438 1.5811 31.8438C2.13006 31.8438 2.65123 31.5601 2.95699 31.1313L9.4061 31.1563L10.2186 30.375L11.278 30.3563L24.2811 30.3125C28.0311 29.6563 30.0749 27.1813 30.5499 23.975L30.6405 11.1469L30.6561 10.125L31.3436 9.40626V2.99327Z"/>
</mask>
<path d="M31.3436 2.99327L28.8091 -0.101282L27.3436 1.09899V2.99327H31.3436ZM28.924 0.906257V4.90626H31.1458L32.3199 3.02001L28.924 0.906257ZM22.5624 0.906257V-3.09374H20.9055L19.7339 -1.92217L22.5624 0.906257ZM21.8749 1.59376L21.9701 5.59262L23.571 5.55451L24.7033 4.42218L21.8749 1.59376ZM20.5624 1.62501V5.62501H20.61L20.6576 5.62387L20.5624 1.62501ZM7.68735 1.62501V-2.37499H7.34047L6.99876 -2.31528L7.68735 1.62501ZM1.43735 7.84376L-2.48979 7.08378L-2.56265 7.46027V7.84376H1.43735ZM1.43735 21.6875L4.39057 24.3854L5.43735 23.2395V21.6875H1.43735ZM0.677977 22.5188L-2.27524 19.8209L-3.32431 20.9692L-3.32202 22.5247L0.677977 22.5188ZM0.687352 28.875H4.68736L4.68735 28.8691L0.687352 28.875ZM0.687352 29.0064L2.9826 32.2823L4.68735 31.0879V29.0064H0.687352ZM2.95699 31.1313L2.97244 27.1314L0.902283 27.1234L-0.299704 28.8089L2.95699 31.1313ZM9.4061 31.1563L9.39065 35.1562L11.0107 35.1625L12.1785 34.0396L9.4061 31.1563ZM10.2186 30.375L10.1478 26.3756L8.57796 26.4034L7.44617 27.4917L10.2186 30.375ZM11.278 30.3563L11.2645 26.3563L11.2359 26.3564L11.2072 26.3569L11.278 30.3563ZM24.2811 30.3125L24.2946 34.3125L24.6351 34.3113L24.9706 34.2526L24.2811 30.3125ZM30.5499 23.975L34.5067 24.5612L34.5478 24.2837L34.5498 24.0033L30.5499 23.975ZM30.6405 11.1469L26.6409 11.0857L26.6407 11.1022L26.6406 11.1186L30.6405 11.1469ZM30.6561 10.125L27.7655 7.36012L26.6806 8.4944L26.6566 10.0639L30.6561 10.125ZM31.3436 9.40626L34.2342 12.1711L35.3436 11.0113V9.40626H31.3436ZM33.8781 6.08783C35.5458 4.72196 35.8082 2.79873 35.8082 1.72914H27.8082C27.8082 1.67057 27.8134 1.44985 27.9246 1.1349C28.0414 0.803905 28.2967 0.318394 28.8091 -0.101282L33.8781 6.08783ZM35.8082 1.72914C35.8082 -1.34121 33.3192 -3.83023 30.2489 -3.83023V4.16977C28.9009 4.16977 27.8082 3.07706 27.8082 1.72914H35.8082ZM30.2489 -3.83023C28.2509 -3.83023 26.5029 -2.77349 25.5282 -1.20749L32.3199 3.02001C31.8956 3.70166 31.1285 4.16977 30.2489 4.16977V-3.83023ZM28.924 -3.09374H22.5624V4.90626H28.924V-3.09374ZM19.7339 -1.92217L19.0464 -1.23467L24.7033 4.42218L25.3908 3.73468L19.7339 -1.92217ZM21.7796 -2.40511L20.4671 -2.37386L20.6576 5.62387L21.9701 5.59262L21.7796 -2.40511ZM20.5624 -2.37499H7.68735V5.62501H20.5624V-2.37499ZM6.99876 -2.31528C4.71453 -1.91609 2.56024 -0.9378 0.833875 0.731416C-0.899372 2.40729 -2.00777 4.59299 -2.48979 7.08378L5.36449 8.60374C5.5731 7.52578 5.98033 6.88335 6.39474 6.48266C6.81603 6.07531 7.44143 5.7286 8.37595 5.56529L6.99876 -2.31528ZM-2.56265 7.84376V20.125H5.43735V7.84376H-2.56265ZM-2.56265 20.125V21.6875H5.43735V20.125H-2.56265ZM-1.51586 18.9896L-2.27524 19.8209L3.63119 25.2166L4.39057 24.3854L-1.51586 18.9896ZM-3.32202 22.5247L-3.31264 28.8809L4.68735 28.8691L4.67797 22.5129L-3.32202 22.5247ZM-3.31265 28.875V29.0064H4.68735V28.875H-3.31265ZM-1.60789 25.7304C-3.03303 26.7289 -3.97827 28.396 -3.97827 30.2844H4.02173C4.02173 31.1153 3.60279 31.8478 2.9826 32.2823L-1.60789 25.7304ZM-3.97827 30.2844C-3.97827 33.3547 -1.48926 35.8438 1.5811 35.8438V27.8438C2.92903 27.8438 4.02173 28.9365 4.02173 30.2844H-3.97827ZM1.5811 35.8438C3.46967 35.8438 5.18481 34.8966 6.21369 33.4538L-0.299704 28.8089C0.117657 28.2236 0.790458 27.8438 1.5811 27.8438V35.8438ZM2.94154 35.1313L9.39065 35.1562L9.42155 27.1563L2.97244 27.1314L2.94154 35.1313ZM12.1785 34.0396L12.991 33.2583L7.44617 27.4917L6.63367 28.2729L12.1785 34.0396ZM10.2894 34.3744L11.3488 34.3556L11.2072 26.3569L10.1478 26.3756L10.2894 34.3744ZM11.2914 34.3562L24.2946 34.3125L24.2676 26.3125L11.2645 26.3563L11.2914 34.3562ZM24.9706 34.2526C27.593 33.7937 29.855 32.6452 31.5534 30.8447C33.2381 29.0586 34.1685 26.8438 34.5067 24.5612L26.593 23.3888C26.4562 24.3125 26.1272 24.9383 25.7338 25.3553C25.354 25.758 24.7192 26.1751 23.5916 26.3724L24.9706 34.2526ZM34.5498 24.0033L34.6404 11.1751L26.6406 11.1186L26.5499 23.9468L34.5498 24.0033ZM34.64 11.208L34.6556 10.1862L26.6566 10.0639L26.6409 11.0857L34.64 11.208ZM33.5467 12.8899L34.2342 12.1711L28.453 6.64137L27.7655 7.36012L33.5467 12.8899ZM35.3436 9.40626V2.99327H27.3436V9.40626H35.3436Z" fill="#00CBE0" mask="url(#path-1-inside-1)"/>
</svg>
