<svg width="32" height="32" viewBox="0 0 32 32" fill="none" xmlns="http://www.w3.org/2000/svg">
<path d="M13.2177 16.5C13.4741 15.4818 14.1792 14.5909 15.4613 14.9091L14.8203 12.3636L20.2691 11.7273V10.5645C20.2691 10.1729 19.9163 9.87422 19.5268 9.93609L12.7959 11.0052C12.4849 11.0546 12.2561 11.3209 12.2561 11.6335V15.5455L13.2177 16.5Z" fill="#0F0F2E"/>
<path d="M15.4613 7.69697L16.4229 6L17.3844 7.69697L16.4229 8.54545L15.4613 7.69697Z" fill="#0F0F2E"/>
<path d="M12.1989 8.24768L11.6701 6.37278L13.5587 6.89775L13.4832 8.17269L12.1989 8.24768Z" fill="#0F0F2E"/>
<path d="M19.9119 6.89775L21.8005 6.37278L21.2717 8.24768L19.9874 8.17268L19.9119 6.89775Z" fill="#0F0F2E"/>
<path d="M18.7651 15.9302V14.9535H17.3844C17.1083 14.9535 16.579 14.0853 16.3489 13.6512L20.491 13L21.7069 15.5805C21.8082 15.7954 21.7805 16.0484 21.6353 16.2369L19.1103 19.5116L20.491 23.7442L16.6941 27L12.8971 23.7442L14.623 16.2558L18.7651 15.9302Z" fill="#0F0F2E"/>
<path d="M11.0853 11.7273C9.2502 10.4545 8.13605 7.37879 7.80836 6C3.87607 13.1273 7.26224 17.4545 9.44685 18.7273C10.7576 17.4545 12.1776 18.197 12.7238 18.7273L13.0514 17.7727C12.0028 17.5182 11.3038 16.3939 11.0853 15.8636L11.0853 11.7273Z" fill="#0F0F2E"/>
<path d="M6.48674 23C8.4301 23.4848 11.1427 20.7778 12.2561 19.3636L11.6488 23L8.91594 25.7273L6.48674 23.6061V23Z" fill="#0F0F2E"/>
<path d="M26.359 23C24.4156 23.4848 21.703 20.7778 20.5896 19.3636L21.1969 23L23.9298 25.7273L26.359 23.6061V23Z" fill="#0F0F2E"/>
<path d="M22.8951 15.6231L21.2306 17.796C22.5622 17.5477 23.3389 18.3134 23.5609 18.7273C28.6208 15.4989 27.0007 8.89727 25.5582 6C25.0256 9.47672 22.4512 11.5876 21.2306 12.2084L22.8951 15.6231Z" fill="#0F0F2E"/>
</svg>
