<svg width="32" height="32" viewBox="0 0 32 32" fill="none" xmlns="http://www.w3.org/2000/svg">
<path d="M15.2476 20.2462C14.3768 19.9508 13.2036 17.4154 12.8408 16.1846C11.97 17.9569 13.4455 20.8615 14.2921 22.0923L13.2036 23.5692L15.7434 28H16.1062L18.6461 23.5692L17.5575 22.0923C19.2991 19.7292 19.2507 17.1692 19.0088 16.1846C18.138 18.8431 17.1827 20 16.6989 20.2462H15.2476Z" fill="#0F0F2E"/>
<path d="M13.2037 28C9.14008 26.5231 8.84982 20.4923 9.21264 17.6615L12.478 22.0923C9.28517 17.3662 11.8733 13.9692 13.5665 12.8615L15.6254 15.306C15.7003 15.395 15.8097 15.4462 15.9249 15.4462C16.04 15.4462 16.1494 15.395 16.2243 15.306L18.2832 12.8615C22.0566 15.8154 20.5811 20 19.3717 21.7231C21.4035 19.6554 22.3953 18.1538 22.6371 17.6615C23.2177 23.2738 20.4602 26.8923 19.0089 28C28.007 24.4554 28.5633 17.9077 27.7167 15.0769L25.5519 16.8712C25.2633 17.1104 24.8552 17.0785 24.6248 16.7811C24.0978 16.1011 23.1999 14.9112 21.9115 13.6C20.4723 12.1354 20.0903 10.0657 20.0693 8.76602C20.0618 8.30174 20.0235 7.82997 19.8216 7.41353C19.0307 5.78155 17.7634 4.73219 16.9194 4.23389C16.6304 4.06332 16.2969 4 15.9629 4C15.58 4 15.1979 4.08363 14.8743 4.29198C13.7178 5.03668 12.7515 6.18796 12.1685 7.0331C11.8783 7.45385 11.7608 7.96362 11.7246 8.47635C11.563 10.7666 10.7363 12.5664 10.3011 13.2308L7.02738 16.7658C6.75649 17.0583 6.30544 17.0766 6.01252 16.807L4.13303 15.0769C2.97199 23.3477 9.69639 27.1385 13.2037 28Z" fill="#0F0F2E"/>
</svg>
