<svg width="32" height="32" viewBox="0 0 32 32" fill="none" xmlns="http://www.w3.org/2000/svg">
<path d="M15.3549 22C14.0946 22 12.8346 21.6249 11.7646 20.9117C10.3732 19.9846 9.43138 18.5916 9.11198 16.9896C8.80636 15.4564 9.13317 13.8227 10.0086 12.5071C10.8552 11.2347 12.1198 10.3782 13.5697 10.0953C14.9535 9.8253 16.423 10.1352 17.601 10.9451C18.735 11.7245 19.4923 12.8813 19.7341 14.202C19.9642 15.4585 19.6758 16.7868 18.9434 17.8457C18.2431 18.8586 17.2127 19.5288 16.0413 19.7327C14.9313 19.9255 13.7649 19.6541 12.8418 18.9873C11.9662 18.3547 11.3945 17.4336 11.232 16.3934C11.0787 15.412 11.3302 14.3892 11.9224 13.5873C12.4779 12.8351 13.2756 12.3535 14.1688 12.231C15.0068 12.1164 15.8705 12.3531 16.5382 12.8814C17.1545 13.3696 17.5376 14.0573 17.6165 14.8179C17.6899 15.5287 17.4685 16.247 17.009 16.7891C16.5939 17.2788 16.0256 17.5663 15.4085 17.5994C14.839 17.6292 14.2618 17.4087 13.8621 17.0085C13.5095 16.6551 13.3274 16.1938 13.3497 15.7098C13.3705 15.2583 13.6151 14.8037 13.9727 14.5521C14.2744 14.3397 14.6301 14.2828 14.9737 14.3918C15.2593 14.4826 15.4179 14.7895 15.3279 15.0772C15.2379 15.3652 14.9331 15.525 14.648 15.4344C14.6329 15.4295 14.624 15.4265 14.5935 15.448C14.5114 15.5058 14.4379 15.6487 14.4327 15.7601C14.4247 15.9372 14.4897 16.0963 14.6262 16.2327C14.8096 16.4165 15.0881 16.5203 15.3513 16.5078C15.7579 16.4861 16.0287 16.2627 16.1843 16.0792C16.4478 15.7683 16.5802 15.3394 16.5375 14.9312C16.4898 14.4674 16.2519 14.0446 15.8683 13.7408C15.4303 13.3941 14.8645 13.238 14.3151 13.3138C13.7131 13.3962 13.1724 13.725 12.7926 14.2396C12.3732 14.8073 12.195 15.5303 12.3031 16.2234C12.42 16.9719 12.8356 17.6381 13.4734 18.0988C14.1623 18.5963 15.0309 18.7994 15.8567 18.6554C16.7403 18.5016 17.5205 17.9922 18.0538 17.2207C18.6216 16.3996 18.8453 15.3715 18.6676 14.3999C18.479 13.368 17.8831 12.4616 16.9903 11.8478C16.0492 11.2009 14.8777 10.9534 13.7759 11.168C12.6117 11.3952 11.5937 12.0867 10.9093 13.1155C10.1938 14.191 9.92615 15.5245 10.1754 16.7742C10.4372 18.0886 11.2142 19.2341 12.3628 19.9999C13.5558 20.7951 15.0303 21.0865 16.4083 20.7992C18.8815 20.2835 20.7776 18.0207 20.9164 15.4186C20.9326 15.1173 21.1868 14.8867 21.4871 14.9024C21.7861 14.9187 22.0154 15.1761 21.9992 15.4776C21.8342 18.5668 19.5753 21.2553 16.6279 21.8696C16.2082 21.9568 15.7816 22 15.3549 22Z" fill="url(#paint0_linear)"/>
<defs>
<linearGradient id="paint0_linear" x1="15.5" y1="10" x2="15.5" y2="22" gradientUnits="userSpaceOnUse">
<stop stop-color="#C79A3C"/>
<stop offset="0.390625" stop-color="#A6843C"/>
<stop offset="1" stop-color="#614B1D"/>
</linearGradient>
</defs>
</svg>
