<svg width="32" height="32" viewBox="0 0 32 32" fill="none" xmlns="http://www.w3.org/2000/svg">
<path d="M4 23.2L5.2 19.6C12.4 19.12 15.4 23 16 25C18.88 19.72 24.4 19.2 26.8 19.6L28 23.2C22.72 22.24 19 24.8 17.8 26.2H19.6V28H12.4V26.2H14.2C11.8 22.84 6.4 22.8 4 23.2Z" fill="url(#paint0_linear)"/>
<path fill-rule="evenodd" clip-rule="evenodd" d="M16 4C13.394 4.6 9.07266 7 12.3301 11.8L13.6333 11.2C14.0676 11 14.806 10.72 14.2848 11.2C13.8627 11.5887 12.8423 13.0532 12.1234 14.1272C11.8306 14.5647 11.6787 15.0803 11.6787 15.6067C11.6788 16.2481 11.9058 16.8688 12.3197 17.3589L16.0662 21.7949C16.1567 21.9022 16.322 21.9022 16.4126 21.7949L20.1852 17.328C20.5822 16.8579 20.8 16.2624 20.8 15.6471C20.8 15.0966 20.6256 14.5602 20.3017 14.1149L16 8.2C15.5657 8.6 14.806 9.16 14.2848 8.2C14.0676 7.8 13.915 6.4 16 4ZM15.863 13.2385L14.5105 15.5919C14.402 15.7807 14.3449 15.9946 14.3449 16.2123C14.3449 16.4648 14.4217 16.7113 14.565 16.9192L15.8988 18.8532C15.9485 18.9254 16.0544 18.9275 16.107 18.8574L17.5677 16.9096C17.7184 16.7086 17.7999 16.4642 17.7999 16.213C17.7999 15.9954 17.7387 15.7822 17.6234 15.5976L16.1458 13.2332C16.0798 13.1276 15.925 13.1305 15.863 13.2385Z" fill="url(#paint1_linear)"/>
<defs>
<linearGradient id="paint0_linear" x1="16" y1="4" x2="16" y2="28" gradientUnits="userSpaceOnUse">
<stop stop-color="#C79A3C"/>
<stop offset="0.390625" stop-color="#A6843C"/>
<stop offset="1" stop-color="#614B1D"/>
</linearGradient>
<linearGradient id="paint1_linear" x1="16" y1="4" x2="16" y2="28" gradientUnits="userSpaceOnUse">
<stop stop-color="#C79A3C"/>
<stop offset="0.390625" stop-color="#A6843C"/>
<stop offset="1" stop-color="#614B1D"/>
</linearGradient>
</defs>
</svg>
