<svg width="32" height="32" viewBox="0 0 32 32" fill="none" xmlns="http://www.w3.org/2000/svg">
<path d="M12.5514 19.8956C12.9346 19.3246 12.8264 18.8766 12.2794 18.5429C12.5251 18.2032 13.075 18.4697 13.4582 18.7332C13.5487 18.7989 13.5766 18.9347 13.5992 19.0452C13.622 19.156 13.6395 19.2412 13.7098 19.2046C14.1808 18.9528 12.3466 15.8024 10.1995 15.7497L10.0988 15.7433C8.27382 15.6282 7.36913 15.5711 6.79456 13.6445L7.49661 13.6767C7.28345 13.4712 7.11557 13.2233 7.00374 12.949C6.89191 12.6747 6.83859 12.3801 6.84721 12.0839C7.84472 12.3387 10.0152 13.0765 11.2789 13.9666C11.3891 14.0442 11.3519 13.7848 11.3172 13.5425C11.2864 13.3281 11.2576 13.1271 11.3345 13.1848C12.1378 13.8331 12.7689 14.6699 13.1716 15.6208C13.4758 15.1992 11.2614 11.554 10.1995 11.3227C10.0357 11.4983 10.1878 11.9961 10.6529 12.4938C11.0537 12.9213 10.805 13.3107 9.65836 12.6929C6.97885 11.961 4.99847 10.4033 5.25297 7.27632L6.30605 8.47676C5.88481 6.44772 5.90529 4.81688 6.82089 4C7.45274 7.67744 9.61155 10.213 13.0107 12.0224C13.4984 13.6381 14.1066 15.2148 14.8302 16.7393C15.1505 17.7189 15.2129 18.7647 15.0115 19.7755C14.0696 21.4971 13.2447 21.6172 12.5514 19.8956Z" fill="url(#paint0_linear)"/>
<path d="M4.78176 6.91328C4.40733 6.66441 4.18209 6.01149 4.00657 5.23267C3.95683 6.11692 4.19049 6.99397 4.67352 7.73602L4.78176 6.91328Z" fill="url(#paint1_linear)"/>
<path d="M17.3806 14.6665C16.1169 15.2697 15.9999 22.4606 17.3426 25.7252L16.5353 28.0002C15.8186 27.4351 15.2599 26.4601 14.8767 24.9961C15.842 23.3916 15.6343 19.5649 15.2014 15.2989L15.2365 13.6974C14.8825 12.8541 14.59 12.0197 14.59 11.2526C13.9289 10.4796 13.3438 9.6803 13.7124 8.61747L13.4959 8.05531L13.8938 7.97626C14.3492 7.34638 14.9518 6.83772 15.6489 6.49474L16.2983 5.48462C16.781 5.77741 17.1437 6.09655 16.9477 6.65578C18.8988 9.2294 19.3932 11.3111 17.992 12.7429L17.3806 14.6665Z" fill="url(#paint2_linear)"/>
<path d="M17.1056 6.34229C18.0563 7.29385 18.5682 8.62312 18.8607 10.1486C18.8767 9.90018 18.9052 9.64481 18.9336 9.38948C19.092 7.96829 19.2502 6.54829 17.2664 6.34229H17.1056Z" fill="url(#paint3_linear)"/>
<path d="M4.83744 4.09082L5.91977 6.07301L6.028 7.8561C5.57717 7.34694 5.23823 6.74867 5.03314 6.10004C4.82805 5.45141 4.76137 4.76689 4.83744 4.09082Z" fill="url(#paint4_linear)"/>
<path d="M6.8557 13.3685C6.17997 13.2368 5.77044 12.6398 5.59492 11.6125C5.96643 12.0047 6.3233 12.3354 6.62168 12.3647L6.8557 13.3685Z" fill="url(#paint5_linear)"/>
<path d="M19.721 18.5429C19.1739 18.8766 19.0657 19.3246 19.4489 19.8956C18.7556 21.6172 17.9307 21.4971 16.9888 19.7755C16.7874 18.7647 16.8499 17.7189 17.1702 16.7393C17.8937 15.2148 18.5019 13.6381 18.9897 12.0224C22.3888 10.213 24.5476 7.67744 25.1794 4C26.095 4.81688 26.1155 6.44772 25.6943 8.47676L26.7474 7.27632C27.0018 10.4033 25.0215 11.961 22.342 12.6929C21.1953 13.3107 20.9466 12.9213 21.3474 12.4938C21.8125 11.9961 21.9646 11.4983 21.8008 11.3227C20.7389 11.554 18.5245 15.1992 18.8288 15.6208C19.2369 14.6715 19.8729 13.8377 20.6804 13.1936C20.7573 13.1359 20.7285 13.3369 20.6978 13.5513C20.663 13.7936 20.6258 14.053 20.736 13.9753C21.9997 13.0736 24.1702 12.3387 25.1677 12.0839C25.1764 12.3801 25.123 12.6747 25.0112 12.949C24.8994 13.2233 24.7315 13.4712 24.5183 13.6767L25.2204 13.6445C24.6458 15.5711 23.7411 15.6282 21.9161 15.7433L21.8154 15.7497C19.6683 15.8024 17.8342 18.9528 18.3052 19.2046C18.3755 19.2412 18.393 19.156 18.4157 19.0452C18.4383 18.9347 18.4662 18.7989 18.5567 18.7332C18.9253 18.4697 19.4752 18.2032 19.721 18.5429Z" fill="url(#paint6_linear)"/>
<path d="M26.0803 6.07301L27.1627 4.09082C27.2387 4.76689 27.172 5.45141 26.9669 6.10004C26.7619 6.74867 26.4229 7.34694 25.9721 7.8561L26.0803 6.07301Z" fill="url(#paint7_linear)"/>
<path d="M27.9934 5.23267C27.8179 6.01149 27.5927 6.66441 27.2183 6.91328L27.3265 7.73602C27.8095 6.99397 28.0432 6.11692 27.9934 5.23267Z" fill="url(#paint8_linear)"/>
<path d="M25.144 13.3685C25.8198 13.2368 26.2293 12.6398 26.4048 11.6125C26.0333 12.0047 25.6764 12.3354 25.3781 12.3647L25.144 13.3685Z" fill="url(#paint9_linear)"/>
<defs>
<linearGradient id="paint0_linear" x1="16" y1="4" x2="16" y2="28.0002" gradientUnits="userSpaceOnUse">
<stop stop-color="#C79A3C"/>
<stop offset="0.390625" stop-color="#A6843C"/>
<stop offset="1" stop-color="#614B1D"/>
</linearGradient>
<linearGradient id="paint1_linear" x1="16" y1="4" x2="16" y2="28.0002" gradientUnits="userSpaceOnUse">
<stop stop-color="#C79A3C"/>
<stop offset="0.390625" stop-color="#A6843C"/>
<stop offset="1" stop-color="#614B1D"/>
</linearGradient>
<linearGradient id="paint2_linear" x1="16" y1="4" x2="16" y2="28.0002" gradientUnits="userSpaceOnUse">
<stop stop-color="#C79A3C"/>
<stop offset="0.390625" stop-color="#A6843C"/>
<stop offset="1" stop-color="#614B1D"/>
</linearGradient>
<linearGradient id="paint3_linear" x1="16" y1="4" x2="16" y2="28.0002" gradientUnits="userSpaceOnUse">
<stop stop-color="#C79A3C"/>
<stop offset="0.390625" stop-color="#A6843C"/>
<stop offset="1" stop-color="#614B1D"/>
</linearGradient>
<linearGradient id="paint4_linear" x1="16" y1="4" x2="16" y2="28.0002" gradientUnits="userSpaceOnUse">
<stop stop-color="#C79A3C"/>
<stop offset="0.390625" stop-color="#A6843C"/>
<stop offset="1" stop-color="#614B1D"/>
</linearGradient>
<linearGradient id="paint5_linear" x1="16" y1="4" x2="16" y2="28.0002" gradientUnits="userSpaceOnUse">
<stop stop-color="#C79A3C"/>
<stop offset="0.390625" stop-color="#A6843C"/>
<stop offset="1" stop-color="#614B1D"/>
</linearGradient>
<linearGradient id="paint6_linear" x1="16" y1="4" x2="16" y2="28.0002" gradientUnits="userSpaceOnUse">
<stop stop-color="#C79A3C"/>
<stop offset="0.390625" stop-color="#A6843C"/>
<stop offset="1" stop-color="#614B1D"/>
</linearGradient>
<linearGradient id="paint7_linear" x1="16" y1="4" x2="16" y2="28.0002" gradientUnits="userSpaceOnUse">
<stop stop-color="#C79A3C"/>
<stop offset="0.390625" stop-color="#A6843C"/>
<stop offset="1" stop-color="#614B1D"/>
</linearGradient>
<linearGradient id="paint8_linear" x1="16" y1="4" x2="16" y2="28.0002" gradientUnits="userSpaceOnUse">
<stop stop-color="#C79A3C"/>
<stop offset="0.390625" stop-color="#A6843C"/>
<stop offset="1" stop-color="#614B1D"/>
</linearGradient>
<linearGradient id="paint9_linear" x1="16" y1="4" x2="16" y2="28.0002" gradientUnits="userSpaceOnUse">
<stop stop-color="#C79A3C"/>
<stop offset="0.390625" stop-color="#A6843C"/>
<stop offset="1" stop-color="#614B1D"/>
</linearGradient>
</defs>
</svg>
